# xmcd
#
# Track frame offsets:
# 150
# 12200
# 25774
# 38684
# 53480
# 66135
# 80018
# 93629
# 109769
# 123041
# 135716
#
# Disc length: 1966 seconds
#
# Revision: 1
# Processed by: cddbd v1.5.1PL0 Copyright (c) Steve Scherf et al.
# Submitted via: CedeCatalogueitor 2.6.0.6 http://personales.ya.com/cdcatalogueitor
#
DISCID=8307ac0b
DTITLE=Pereza - Pereza
DYEAR=2001
DGENRE=
TTITLE0=Horóscopo
TTITLE1=Pompa De Jabón
TTITLE2=El Globo
TTITLE3=Tu Que Tal
TTITLE4=Pereza
TTITLE5=Música Ligera
TTITLE6=¡Ay!
TTITLE7=Perdona Mona
TTITLE8=Una Chica En Mi Zapato
TTITLE9=Serás Aún La Misma
TTITLE10=Todo Saldrá Bien
EXTD=Falta La Cancion Nº 12 "T.V."
EXTT0=
EXTT1=
EXTT2=
EXTT3=
EXTT4=
EXTT5=
EXTT6=
EXTT7=
EXTT8=
EXTT9=
EXTT10=
PLAYORDER=
